<mxfile host="app.diagrams.net" modified="2023-08-16T10:32:25.079Z" agent="Mozilla/5.0 (Windows NT 10.0; Win64; x64) AppleWebKit/537.36 (KHTML, like Gecko) Chrome/115.0.0.0 Safari/537.36" version="21.6.8" etag="PhJW1nFYEjsEs0e2911v" type="github">
  <diagram name="Page-1" id="DGBBjSNzoOt-oMJY8zQj">
    <mxGraphModel>
      <root>
        <mxCell id="0" />
        <mxCell id="1" parent="0" />
      </root>
    </mxGraphModel>
  </diagram>
</mxfile>
